<svg xmlns="http://www.w3.org/2000/svg" viewBox="0 0 100 100">
  <rect x="6.5" y="23" width="9" height="9" rx="4.5"/>
  <rect x="84.5" y="23" width="9" height="9" rx="4.5"/>
  <rect x="6" y="30" width="10" height="63" rx="2.5"/>
  <rect x="84" y="30" width="10" height="63" rx="2.5"/>
  <rect x="14" y="38" width="32" height="5" rx="2.5"/>
  <rect x="14" y="83" width="32" height="5" rx="2.5"/>
  <rect x="54" y="38" width="32" height="5" rx="2.5"/>
  <rect x="54" y="83" width="32" height="5" rx="2.5"/>
  <rect x="20" y="38" width="4" height="50" rx="2"/>
  <rect x="31" y="38" width="4" height="50" rx="2"/>
  <rect x="42" y="38" width="4" height="50" rx="2"/>
  <rect x="54" y="38" width="4" height="50" rx="2"/>
  <rect x="65" y="38" width="4" height="50" rx="2"/>
  <rect x="76" y="38" width="4" height="50" rx="2"/>
</svg>
